<svg width="32" height="31" viewBox="0 0 32 31" fill="none" xmlns="http://www.w3.org/2000/svg">
<path d="M18.6939 3.13892C21.3135 3.13892 23.8743 3.91649 26.0525 5.3733C28.2306 6.83011 29.9283 8.90074 30.9308 11.3233C31.9333 13.7459 32.1956 16.4117 31.6845 18.9835C31.1735 21.5553 29.912 23.9176 28.0596 25.7718C26.2072 27.626 23.8472 28.8887 21.2779 29.4003C18.7086 29.9118 16.0454 29.6493 13.6252 28.6458C11.2049 27.6423 9.13634 25.943 7.68094 23.7627C6.22554 21.5825 5.44873 19.0192 5.44873 16.397C5.44873 12.8807 6.8442 9.50847 9.32814 7.02211C11.8121 4.53574 15.181 3.13892 18.6939 3.13892V3.13892Z" fill="#F5F5F5"/>
<path d="M16.0164 30.4997C24.3169 30.4997 31.0458 23.7432 31.0458 15.4087C31.0458 7.07412 24.3169 0.317627 16.0164 0.317627C7.71593 0.317627 0.987061 7.07412 0.987061 15.4087C0.987061 23.7432 7.71593 30.4997 16.0164 30.4997Z" stroke="#161616" stroke-width="0.637" stroke-miterlimit="10"/>
<path d="M18.085 7.13545C15.1254 6.94722 7.51732 9.81553 10.3358 14.0933C11.9801 16.5852 15.1736 14.9392 17.475 15.551C20.4345 16.3544 20.1054 19.9229 18.2776 21.6629C17.3827 22.4708 16.2134 22.9061 15.0086 22.8798C13.8038 22.8536 12.6545 22.3678 11.7955 21.5218C11.1385 20.9111 10.1042 21.8982 10.8094 22.5089C14.52 25.8937 21.142 23.9665 21.142 18.4652C21.1704 17.3533 20.7641 16.2742 20.0096 15.4576C19.2551 14.6411 18.212 14.1516 17.1023 14.0933C15.364 13.8638 10.4803 15.1745 11.6075 11.6015C12.3586 9.1567 15.9751 8.4049 18.1366 8.54608C19.0287 8.59314 19.0287 7.18251 18.0896 7.13545H18.085Z" fill="#161616"/>
<path d="M16.4866 7.79305C16.6277 6.24124 16.7687 4.73765 16.9097 3.18584C17.0038 2.29287 15.5945 2.29287 15.5005 3.18584C15.3594 4.73765 15.2184 6.24124 15.0774 7.79305C14.9834 8.68602 16.3926 8.68602 16.4866 7.79305Z" fill="#161616"/>
<path d="M15.5475 24.6243C15.6885 25.7055 15.8295 26.8338 15.9236 27.915C16.0176 28.808 17.4268 28.808 17.3328 27.915C17.1918 26.8338 17.0507 25.7055 16.9567 24.6243C16.8627 23.7313 15.4534 23.7313 15.5475 24.6243Z" fill="#161616"/>
</svg>
