<svg width="179" height="212" viewBox="0 0 179 212" fill="none" xmlns="http://www.w3.org/2000/svg">
<path d="M20.9464 211.03H47.4344C47.6321 211.03 47.8216 210.951 47.9614 210.811C48.1012 210.671 48.1797 210.482 48.1797 210.284C48.1797 210.086 48.1012 209.896 47.9614 209.756C47.8216 209.616 47.6321 209.538 47.4344 209.538H20.9464C20.7487 209.538 20.5591 209.616 20.4194 209.756C20.2796 209.896 20.201 210.086 20.201 210.284C20.201 210.482 20.2796 210.671 20.4194 210.811C20.5591 210.951 20.7487 211.03 20.9464 211.03Z" fill="#161616"/>
<path d="M137.385 210.135H157.031C157.228 210.135 157.418 210.057 157.558 209.917C157.697 209.777 157.776 209.587 157.776 209.389C157.776 209.191 157.697 209.002 157.558 208.862C157.418 208.722 157.228 208.643 157.031 208.643H137.385C137.187 208.643 136.998 208.722 136.858 208.862C136.718 209.002 136.639 209.191 136.639 209.389C136.639 209.587 136.718 209.777 136.858 209.917C136.998 210.057 137.187 210.135 137.385 210.135Z" fill="#161616"/>
<path d="M166.557 209.241H177.972C178.17 209.241 178.359 209.163 178.499 209.023C178.639 208.883 178.717 208.693 178.717 208.495C178.717 208.297 178.639 208.108 178.499 207.968C178.359 207.828 178.17 207.749 177.972 207.749H166.562C166.364 207.749 166.174 207.828 166.035 207.968C165.895 208.108 165.816 208.297 165.816 208.495C165.816 208.693 165.895 208.883 166.035 209.023C166.174 209.163 166.364 209.241 166.562 209.241H166.557Z" fill="#161616"/>
<path d="M119.822 149.705H25.6088C24.0312 149.7 22.5195 149.071 21.404 147.954C20.2885 146.838 19.6598 145.325 19.6553 143.745V140.667C19.6598 139.088 20.2885 137.575 21.404 136.458C22.5195 135.342 24.0312 134.712 25.6088 134.708H119.822C121.4 134.712 122.912 135.342 124.027 136.458C125.143 137.575 125.771 139.088 125.776 140.667V143.736C125.774 145.317 125.146 146.832 124.03 147.951C122.915 149.07 121.401 149.7 119.822 149.705V149.705Z" stroke="#161616" stroke-width="0.637" stroke-miterlimit="10"/>
<path d="M129.051 165.491H34.8372C33.2596 165.487 31.7479 164.857 30.6324 163.741C29.5169 162.624 28.8882 161.111 28.8837 159.532V156.452C28.8882 154.873 29.5169 153.36 30.6324 152.244C31.7479 151.127 33.2596 150.498 34.8372 150.493H129.051C130.628 150.498 132.14 151.127 133.255 152.244C134.371 153.36 135 154.873 135.004 156.452V159.532C135 161.111 134.371 162.624 133.255 163.741C132.14 164.857 130.628 165.487 129.051 165.491Z" stroke="#161616" stroke-width="0.637" stroke-miterlimit="10"/>
<path d="M107.319 180.885H13.1056C11.528 180.881 10.0164 180.251 8.90085 179.135C7.78533 178.018 7.15664 176.505 7.1521 174.926V171.846C7.15664 170.267 7.78533 168.754 8.90085 167.638C10.0164 166.521 11.528 165.892 13.1056 165.887H107.319C108.897 165.892 110.408 166.521 111.524 167.638C112.639 168.754 113.268 170.267 113.273 171.846V174.928C113.268 176.507 112.639 178.02 111.523 179.136C110.408 180.252 108.896 180.881 107.319 180.885Z" fill="#07A4A2" stroke="#161616" stroke-width="0.637" stroke-miterlimit="10"/>
<path d="M118.829 195.387H24.665C23.0875 195.382 21.5758 194.753 20.4603 193.636C19.3448 192.52 18.7161 191.006 18.7115 189.427V186.349C18.7161 184.77 19.3448 183.257 20.4603 182.14C21.5758 181.023 23.0875 180.394 24.665 180.39H118.879C120.456 180.394 121.968 181.023 123.083 182.14C124.199 183.257 124.828 184.77 124.832 186.349V189.427C124.808 191.009 124.166 192.518 123.044 193.632C121.922 194.745 120.409 195.375 118.829 195.387V195.387Z" stroke="#161616" stroke-width="0.637" stroke-miterlimit="10"/>
<path d="M129.051 210.381H34.8372C33.2596 210.377 31.7479 209.747 30.6324 208.631C29.5169 207.514 28.8882 206.001 28.8837 204.422V201.344C28.8882 199.764 29.5169 198.251 30.6324 197.135C31.7479 196.018 33.2596 195.389 34.8372 195.384H129.051C130.628 195.389 132.14 196.018 133.255 197.135C134.371 198.251 135 199.764 135.004 201.344V204.422C135 206.001 134.371 207.514 133.255 208.631C132.14 209.747 130.628 210.377 129.051 210.381Z" stroke="#161616" stroke-width="0.637" stroke-miterlimit="10"/>
<path d="M92.2875 141.161V147.318C92.2875 147.471 92.3479 147.617 92.4554 147.724C92.5629 147.832 92.7088 147.892 92.8608 147.892C93.0129 147.892 93.1587 147.832 93.2662 147.724C93.3737 147.617 93.4341 147.471 93.4341 147.318V141.161C93.4341 141.008 93.3737 140.862 93.2662 140.755C93.1587 140.647 93.0129 140.587 92.8608 140.587C92.7088 140.587 92.5629 140.647 92.4554 140.755C92.3479 140.862 92.2875 141.008 92.2875 141.161Z" fill="#161616"/>
<path d="M95.6117 142.249V147.86C95.6117 148.012 95.6721 148.158 95.7796 148.266C95.8871 148.374 96.033 148.434 96.185 148.434C96.3371 148.434 96.4829 148.374 96.5904 148.266C96.6979 148.158 96.7584 148.012 96.7584 147.86V142.249C96.7584 142.096 96.6979 141.951 96.5904 141.843C96.4829 141.735 96.3371 141.675 96.185 141.675C96.033 141.675 95.8871 141.735 95.7796 141.843C95.6721 141.951 95.6117 142.096 95.6117 142.249Z" fill="#161616"/>
<path d="M106.824 139.17V147.017C106.824 147.169 106.884 147.315 106.992 147.422C107.099 147.53 107.245 147.59 107.397 147.59C107.549 147.59 107.695 147.53 107.802 147.422C107.91 147.315 107.97 147.169 107.97 147.017V139.17C107.97 139.018 107.91 138.872 107.802 138.765C107.695 138.657 107.549 138.596 107.397 138.596C107.245 138.596 107.099 138.657 106.992 138.765C106.884 138.872 106.824 139.018 106.824 139.17Z" fill="#161616"/>
<path d="M109.056 143.641V146.721C109.056 146.873 109.117 147.019 109.224 147.126C109.332 147.234 109.478 147.294 109.63 147.294C109.782 147.294 109.927 147.234 110.035 147.126C110.143 147.019 110.203 146.873 110.203 146.721V143.641C110.203 143.489 110.143 143.343 110.035 143.235C109.927 143.128 109.782 143.067 109.63 143.067C109.478 143.067 109.332 143.128 109.224 143.235C109.117 143.343 109.056 143.489 109.056 143.641Z" fill="#161616"/>
<path d="M32.0576 138.976V147.667C32.0576 147.819 32.118 147.965 32.2255 148.073C32.3331 148.181 32.4789 148.241 32.631 148.241C32.783 148.241 32.9288 148.181 33.0364 148.073C33.1439 147.965 33.2043 147.819 33.2043 147.667V138.976C33.2043 138.824 33.1439 138.678 33.0364 138.57C32.9288 138.463 32.783 138.402 32.631 138.402C32.4789 138.402 32.3331 138.463 32.2255 138.57C32.118 138.678 32.0576 138.824 32.0576 138.976Z" fill="#161616"/>
<path d="M27.4446 141.157V146.272C27.4446 146.424 27.505 146.57 27.6125 146.677C27.72 146.785 27.8659 146.846 28.0179 146.846C28.17 146.846 28.3158 146.785 28.4233 146.677C28.5308 146.57 28.5912 146.424 28.5912 146.272V141.157C28.5912 141.005 28.5308 140.859 28.4233 140.751C28.3158 140.644 28.17 140.583 28.0179 140.583C27.8659 140.583 27.72 140.644 27.6125 140.751C27.505 140.859 27.4446 141.005 27.4446 141.157Z" fill="#161616"/>
<path d="M45.9988 139.319V146.271C45.9988 146.423 46.0592 146.569 46.1667 146.676C46.2742 146.784 46.4201 146.845 46.5721 146.845C46.7242 146.845 46.87 146.784 46.9775 146.676C47.0851 146.569 47.1454 146.423 47.1454 146.271V139.319C47.1454 139.166 47.0851 139.02 46.9775 138.913C46.87 138.805 46.7242 138.745 46.5721 138.745C46.4201 138.745 46.2742 138.805 46.1667 138.913C46.0592 139.02 45.9988 139.166 45.9988 139.319Z" fill="#161616"/>
<path d="M40.8893 143.392V148.011C40.8893 148.163 40.9497 148.309 41.0572 148.417C41.1647 148.524 41.3106 148.585 41.4626 148.585C41.6147 148.585 41.7605 148.524 41.868 148.417C41.9755 148.309 42.0359 148.163 42.0359 148.011V143.392C42.0359 143.24 41.9755 143.094 41.868 142.986C41.7605 142.879 41.6147 142.818 41.4626 142.818C41.3106 142.818 41.1647 142.879 41.0572 142.986C40.9497 143.094 40.8893 143.24 40.8893 143.392Z" fill="#161616"/>
<path d="M66.8854 139.469V148.507C66.8854 148.66 66.9458 148.806 67.0533 148.913C67.1608 149.021 67.3067 149.081 67.4587 149.081C67.6108 149.081 67.7566 149.021 67.8641 148.913C67.9716 148.806 68.032 148.66 68.032 148.507V139.469C68.032 139.316 67.9716 139.17 67.8641 139.063C67.7566 138.955 67.6108 138.895 67.4587 138.895C67.3067 138.895 67.1608 138.955 67.0533 139.063C66.9458 139.17 66.8854 139.316 66.8854 139.469Z" fill="#161616"/>
<path d="M70.3093 142.895V147.514C70.3093 147.666 70.3697 147.812 70.4773 147.919C70.5848 148.027 70.7306 148.087 70.8827 148.087C71.0347 148.087 71.1806 148.027 71.2881 147.919C71.3956 147.812 71.456 147.666 71.456 147.514V142.895C71.456 142.743 71.3956 142.597 71.2881 142.489C71.1806 142.382 71.0347 142.321 70.8827 142.321C70.7306 142.321 70.5848 142.382 70.4773 142.489C70.3697 142.597 70.3093 142.743 70.3093 142.895Z" fill="#161616"/>
<path d="M75.3695 138.774V147.813C75.3695 147.965 75.4299 148.111 75.5374 148.219C75.6449 148.327 75.7908 148.387 75.9428 148.387C76.0949 148.387 76.2407 148.327 76.3482 148.219C76.4558 148.111 76.5162 147.965 76.5162 147.813V138.774C76.5162 138.622 76.4558 138.476 76.3482 138.369C76.2407 138.261 76.0949 138.2 75.9428 138.2C75.7908 138.2 75.6449 138.261 75.5374 138.369C75.4299 138.476 75.3695 138.622 75.3695 138.774Z" fill="#161616"/>
<path d="M42.2285 153.919V164.647C42.2285 164.799 42.2889 164.945 42.3964 165.052C42.504 165.16 42.6498 165.22 42.8018 165.22C42.9539 165.22 43.0997 165.16 43.2073 165.052C43.3148 164.945 43.3752 164.799 43.3752 164.647V153.919C43.3752 153.767 43.3148 153.621 43.2073 153.514C43.0997 153.406 42.9539 153.345 42.8018 153.345C42.6498 153.345 42.504 153.406 42.3964 153.514C42.2889 153.621 42.2285 153.767 42.2285 153.919Z" fill="#161616"/>
<path d="M48.3804 157.496V165.143C48.3804 165.296 48.4408 165.442 48.5483 165.549C48.6558 165.657 48.8016 165.717 48.9537 165.717C49.1058 165.717 49.2516 165.657 49.3591 165.549C49.4666 165.442 49.527 165.296 49.527 165.143V157.496C49.4777 156.8 48.3804 156.8 48.3804 157.496Z" fill="#161616"/>
<path d="M68.2751 155.458V163.106C68.2751 163.258 68.3356 163.404 68.4431 163.512C68.5506 163.62 68.6964 163.68 68.8485 163.68C69.0005 163.68 69.1464 163.62 69.2539 163.512C69.3614 163.404 69.4218 163.258 69.4218 163.106V155.458C69.3725 154.763 68.2751 154.763 68.2751 155.458Z" fill="#161616"/>
<path d="M81.174 152.728V165.144C81.174 165.296 81.2343 165.442 81.3419 165.549C81.4494 165.657 81.5952 165.717 81.7473 165.717C81.8993 165.717 82.0452 165.657 82.1527 165.549C82.2602 165.442 82.3206 165.296 82.3206 165.144V152.728C82.2713 152.032 81.174 152.032 81.174 152.728Z" fill="#161616"/>
<path d="M92.8815 157.695V161.768C92.8815 161.92 92.9419 162.066 93.0494 162.174C93.1569 162.281 93.3027 162.342 93.4548 162.342C93.6069 162.342 93.7527 162.281 93.8602 162.174C93.9677 162.066 94.0281 161.92 94.0281 161.768V157.695C94.0281 157.543 93.9677 157.397 93.8602 157.29C93.7527 157.182 93.6069 157.122 93.4548 157.122C93.3027 157.122 93.1569 157.182 93.0494 157.29C92.9419 157.397 92.8815 157.543 92.8815 157.695Z" fill="#161616"/>
<path d="M18.7621 170.109V179.991C18.7621 180.143 18.8225 180.289 18.93 180.397C19.0375 180.505 19.1834 180.565 19.3354 180.565C19.4875 180.565 19.6333 180.505 19.7408 180.397C19.8483 180.289 19.9088 180.143 19.9088 179.991V170.109C19.9088 169.957 19.8483 169.811 19.7408 169.703C19.6333 169.595 19.4875 169.535 19.3354 169.535C19.1834 169.535 19.0375 169.595 18.93 169.703C18.8225 169.811 18.7621 169.957 18.7621 170.109Z" fill="#161616"/>
<path d="M44.9576 170.457V180.687C44.9576 180.839 45.018 180.985 45.1256 181.093C45.2331 181.2 45.3789 181.261 45.531 181.261C45.683 181.261 45.8289 181.2 45.9364 181.093C46.0439 180.985 46.1043 180.839 46.1043 180.687V170.457C46.1043 170.304 46.0439 170.159 45.9364 170.051C45.8289 169.943 45.683 169.883 45.531 169.883C45.3789 169.883 45.2331 169.943 45.1256 170.051C45.018 170.159 44.9576 170.304 44.9576 170.457Z" fill="#161616"/>
<path d="M34.0918 171.3V178.104C34.0918 178.256 34.1522 178.402 34.2597 178.51C34.3672 178.618 34.5131 178.678 34.6651 178.678C34.8172 178.678 34.963 178.618 35.0705 178.51C35.1781 178.402 35.2385 178.256 35.2385 178.104V171.3C35.2385 171.148 35.1781 171.002 35.0705 170.894C34.963 170.787 34.8172 170.726 34.6651 170.726C34.5131 170.726 34.3672 170.787 34.2597 170.894C34.1522 171.002 34.0918 171.148 34.0918 171.3Z" fill="#161616"/>
<path d="M37.8127 169.066V174.677C37.8127 174.829 37.8731 174.975 37.9807 175.083C38.0882 175.191 38.234 175.251 38.3861 175.251C38.5381 175.251 38.684 175.191 38.7915 175.083C38.899 174.975 38.9594 174.829 38.9594 174.677V169.066C38.9594 168.913 38.899 168.767 38.7915 168.66C38.684 168.552 38.5381 168.492 38.3861 168.492C38.234 168.492 38.0882 168.552 37.9807 168.66C37.8731 168.767 37.8127 168.913 37.8127 169.066Z" fill="#161616"/>
<path d="M73.8811 169.265V179.645C73.8811 179.797 73.9415 179.943 74.049 180.05C74.1565 180.158 74.3024 180.219 74.4544 180.219C74.6065 180.219 74.7523 180.158 74.8598 180.05C74.9674 179.943 75.0278 179.797 75.0278 179.645V169.265C75.0278 169.113 74.9674 168.967 74.8598 168.859C74.7523 168.752 74.6065 168.691 74.4544 168.691C74.3024 168.691 74.1565 168.752 74.049 168.859C73.9415 168.967 73.8811 169.113 73.8811 169.265Z" fill="#161616"/>
<path d="M64.5049 169.066V171.599C64.5049 171.751 64.5653 171.897 64.6728 172.005C64.7803 172.112 64.9262 172.173 65.0782 172.173C65.2303 172.173 65.3761 172.112 65.4836 172.005C65.5911 171.897 65.6515 171.751 65.6515 171.599V169.066C65.6515 168.913 65.5911 168.767 65.4836 168.66C65.3761 168.552 65.2303 168.492 65.0782 168.492C64.9262 168.492 64.7803 168.552 64.6728 168.66C64.5653 168.767 64.5049 168.913 64.5049 169.066Z" fill="#161616"/>
<path d="M96.1069 166.038V175.92C96.1069 176.072 96.1673 176.218 96.2749 176.326C96.3824 176.434 96.5282 176.494 96.6803 176.494C96.8323 176.494 96.9782 176.434 97.0857 176.326C97.1932 176.218 97.2536 176.072 97.2536 175.92V166.038C97.2536 165.886 97.1932 165.74 97.0857 165.632C96.9782 165.524 96.8323 165.464 96.6803 165.464C96.5282 165.464 96.3824 165.524 96.2749 165.632C96.1673 165.74 96.1069 165.886 96.1069 166.038Z" fill="#161616"/>
<path d="M101.069 173.138V179.097C101.069 179.249 101.129 179.395 101.237 179.503C101.344 179.611 101.49 179.671 101.642 179.671C101.794 179.671 101.94 179.611 102.047 179.503C102.155 179.395 102.215 179.249 102.215 179.097V173.138C102.166 172.442 101.069 172.442 101.069 173.138Z" fill="#161616"/>
<path d="M83.2081 169.066V177.757C83.2081 177.909 83.2685 178.055 83.3761 178.162C83.4836 178.27 83.6294 178.331 83.7815 178.331C83.9335 178.331 84.0794 178.27 84.1869 178.162C84.2944 178.055 84.3548 177.909 84.3548 177.757V169.066C84.3548 168.913 84.2944 168.767 84.1869 168.66C84.0794 168.552 83.9335 168.492 83.7815 168.492C83.6294 168.492 83.4836 168.552 83.3761 168.66C83.2685 168.767 83.2081 168.913 83.2081 169.066Z" fill="#161616"/>
<path d="M28.2874 182.028V193.102C28.2874 193.255 28.3477 193.4 28.4553 193.508C28.5628 193.616 28.7086 193.676 28.8607 193.676C29.0127 193.676 29.1586 193.616 29.2661 193.508C29.3736 193.4 29.434 193.255 29.434 193.102V182.028C29.434 181.876 29.3736 181.73 29.2661 181.623C29.1586 181.515 29.0127 181.455 28.8607 181.455C28.7086 181.455 28.5628 181.515 28.4553 181.623C28.3477 181.73 28.2874 181.876 28.2874 182.028Z" fill="#161616"/>
<path d="M36.9195 195.088V184.014C36.9195 183.862 36.8591 183.716 36.7516 183.609C36.644 183.501 36.4982 183.44 36.3462 183.44C36.1941 183.44 36.0483 183.501 35.9408 183.609C35.8332 183.716 35.7728 183.862 35.7728 184.014V195.088C35.7728 195.24 35.8332 195.386 35.9408 195.494C36.0483 195.602 36.1941 195.662 36.3462 195.662C36.4982 195.662 36.644 195.602 36.7516 195.494C36.8591 195.386 36.9195 195.24 36.9195 195.088Z" fill="#161616"/>
<path d="M40.4914 194.791V190.52C40.4914 190.368 40.431 190.222 40.3235 190.114C40.216 190.007 40.0701 189.946 39.9181 189.946C39.766 189.946 39.6202 190.007 39.5127 190.114C39.4051 190.222 39.3447 190.368 39.3447 190.52V194.791C39.3447 194.943 39.4051 195.089 39.5127 195.197C39.6202 195.304 39.766 195.365 39.9181 195.365C40.0701 195.365 40.216 195.304 40.3235 195.197C40.431 195.089 40.4914 194.943 40.4914 194.791Z" fill="#161616"/>
<path d="M48.3804 181.183V192.755C48.3804 192.907 48.4408 193.053 48.5483 193.161C48.6558 193.268 48.8016 193.329 48.9537 193.329C49.1058 193.329 49.2516 193.268 49.3591 193.161C49.4666 193.053 49.527 192.907 49.527 192.755V181.183C49.527 181.031 49.4666 180.885 49.3591 180.777C49.2516 180.669 49.1058 180.609 48.9537 180.609C48.8016 180.609 48.6558 180.669 48.5483 180.777C48.4408 180.885 48.3804 181.031 48.3804 181.183Z" fill="#161616"/>
<path d="M51.2574 186.597V192.059C51.2574 192.211 51.3179 192.357 51.4254 192.465C51.5329 192.573 51.6787 192.633 51.8308 192.633C51.9828 192.633 52.1287 192.573 52.2362 192.465C52.3437 192.357 52.4041 192.211 52.4041 192.059V186.597C52.3548 185.901 51.2574 185.901 51.2574 186.597Z" fill="#161616"/>
<path d="M55.1721 184.56V190.52C55.1721 190.672 55.2325 190.818 55.3401 190.926C55.4476 191.033 55.5934 191.094 55.7455 191.094C55.8975 191.094 56.0433 191.033 56.1509 190.926C56.2584 190.818 56.3188 190.672 56.3188 190.52V184.56C56.2695 183.865 55.1721 183.865 55.1721 184.56Z" fill="#161616"/>
<path d="M67.9276 181.183V193.251C67.9276 193.403 67.988 193.549 68.0955 193.656C68.2031 193.764 68.3489 193.824 68.5009 193.824C68.653 193.824 68.7988 193.764 68.9064 193.656C69.0139 193.549 69.0743 193.403 69.0743 193.251V181.183C69.0743 181.031 69.0139 180.885 68.9064 180.777C68.7988 180.669 68.653 180.609 68.5009 180.609C68.3489 180.609 68.2031 180.669 68.0955 180.777C67.988 180.885 67.9276 181.031 67.9276 181.183Z" fill="#161616"/>
<path d="M80.8265 185.604V192.261C80.8265 192.413 80.887 192.559 80.9945 192.667C81.102 192.775 81.2478 192.835 81.3999 192.835C81.5519 192.835 81.6978 192.775 81.8053 192.667C81.9128 192.559 81.9732 192.413 81.9732 192.261V185.604C81.9732 185.452 81.9128 185.306 81.8053 185.198C81.6978 185.091 81.5519 185.03 81.3999 185.03C81.2478 185.03 81.102 185.091 80.9945 185.198C80.887 185.306 80.8265 185.452 80.8265 185.604Z" fill="#161616"/>
<path d="M98.4897 180.835V193.597C98.4897 193.749 98.5502 193.895 98.6577 194.003C98.7652 194.11 98.911 194.171 99.0631 194.171C99.2151 194.171 99.361 194.11 99.4685 194.003C99.576 193.895 99.6364 193.749 99.6364 193.597V180.835C99.6364 180.683 99.576 180.537 99.4685 180.429C99.361 180.321 99.2151 180.261 99.0631 180.261C98.911 180.261 98.7652 180.321 98.6577 180.429C98.5502 180.537 98.4897 180.683 98.4897 180.835Z" fill="#161616"/>
<path d="M103.943 187.094V193.202C103.943 193.354 104.004 193.5 104.111 193.608C104.219 193.716 104.365 193.776 104.517 193.776C104.669 193.776 104.815 193.716 104.922 193.608C105.03 193.5 105.09 193.354 105.09 193.202V187.094C105.09 186.941 105.03 186.795 104.922 186.688C104.815 186.58 104.669 186.52 104.517 186.52C104.365 186.52 104.219 186.58 104.111 186.688C104.004 186.795 103.943 186.941 103.943 187.094Z" fill="#161616"/>
<path d="M113.323 181.482V191.017C113.323 191.169 113.383 191.315 113.491 191.423C113.598 191.53 113.744 191.591 113.896 191.591C114.048 191.591 114.194 191.53 114.302 191.423C114.409 191.315 114.47 191.169 114.47 191.017V181.482C114.42 180.787 113.323 180.787 113.323 181.482Z" fill="#161616"/>
<path d="M42.1793 209.937V198.863C42.1793 198.711 42.1188 198.565 42.0113 198.457C41.9038 198.35 41.758 198.289 41.6059 198.289C41.4539 198.289 41.308 198.35 41.2005 198.457C41.093 198.565 41.0326 198.711 41.0326 198.863V209.937C41.0326 210.089 41.093 210.235 41.2005 210.343C41.308 210.45 41.4539 210.511 41.6059 210.511C41.758 210.511 41.9038 210.45 42.0113 210.343C42.1188 210.235 42.1793 210.089 42.1793 209.937Z" fill="#161616"/>
<path d="M46.2465 209.738V204.127C46.2465 203.975 46.1861 203.829 46.0786 203.721C45.9711 203.613 45.8252 203.553 45.6732 203.553C45.5211 203.553 45.3753 203.613 45.2678 203.721C45.1603 203.829 45.0999 203.975 45.0999 204.127V209.738C45.0999 209.891 45.1603 210.037 45.2678 210.144C45.3753 210.252 45.5211 210.312 45.6732 210.312C45.8252 210.312 45.9711 210.252 46.0786 210.144C46.1861 210.037 46.2465 209.891 46.2465 209.738Z" fill="#161616"/>
<path d="M57.7074 196.827V209.589C57.7074 209.741 57.7678 209.887 57.8753 209.995C57.9828 210.102 58.1287 210.163 58.2807 210.163C58.4328 210.163 58.5786 210.102 58.6861 209.995C58.7937 209.887 58.8541 209.741 58.8541 209.589V196.827C58.8541 196.675 58.7937 196.529 58.6861 196.421C58.5786 196.313 58.4328 196.253 58.2807 196.253C58.1287 196.253 57.9828 196.313 57.8753 196.421C57.7678 196.529 57.7074 196.675 57.7074 196.827Z" fill="#161616"/>
<path d="M67.9276 198.863V206.709C67.9276 206.862 67.988 207.008 68.0955 207.115C68.2031 207.223 68.3489 207.283 68.5009 207.283C68.653 207.283 68.7988 207.223 68.9064 207.115C69.0139 207.008 69.0743 206.862 69.0743 206.709V198.863C69.0743 198.711 69.0139 198.565 68.9064 198.457C68.7988 198.35 68.653 198.289 68.5009 198.289C68.3489 198.289 68.2031 198.35 68.0955 198.457C67.988 198.565 67.9276 198.711 67.9276 198.863Z" fill="#161616"/>
<path d="M64.3558 200.402V203.481C64.3558 203.633 64.4162 203.779 64.5238 203.886C64.6313 203.994 64.7771 204.055 64.9292 204.055C65.0812 204.055 65.2271 203.994 65.3346 203.886C65.4421 203.779 65.5025 203.633 65.5025 203.481V200.402C65.5025 200.25 65.4421 200.104 65.3346 199.996C65.2271 199.889 65.0812 199.828 64.9292 199.828C64.7771 199.828 64.6313 199.889 64.5238 199.996C64.4162 200.104 64.3558 200.25 64.3558 200.402Z" fill="#161616"/>
<path d="M86.4326 195.634V208.894C86.4326 209.046 86.493 209.192 86.6006 209.299C86.7081 209.407 86.8539 209.468 87.006 209.468C87.158 209.468 87.3038 209.407 87.4114 209.299C87.5189 209.192 87.5793 209.046 87.5793 208.894V195.634C87.5793 195.482 87.5189 195.336 87.4114 195.229C87.3038 195.121 87.158 195.061 87.006 195.061C86.8539 195.061 86.7081 195.121 86.6006 195.229C86.493 195.336 86.4326 195.482 86.4326 195.634Z" fill="#161616"/>
<path d="M90.6981 201.395V207.354C90.6981 207.507 90.7585 207.653 90.8661 207.76C90.9736 207.868 91.1194 207.928 91.2715 207.928C91.4235 207.928 91.5693 207.868 91.6769 207.76C91.7844 207.653 91.8448 207.507 91.8448 207.354V201.395C91.7955 200.7 90.6981 200.7 90.6981 201.395Z" fill="#161616"/>
<path d="M101.565 196.282V208.697C101.565 208.849 101.626 208.995 101.733 209.103C101.841 209.211 101.986 209.271 102.139 209.271C102.291 209.271 102.436 209.211 102.544 209.103C102.651 208.995 102.712 208.849 102.712 208.697V196.282C102.712 196.129 102.651 195.983 102.544 195.876C102.436 195.768 102.291 195.708 102.139 195.708C101.986 195.708 101.841 195.768 101.733 195.876C101.626 195.983 101.565 196.129 101.565 196.282Z" fill="#161616"/>
<path d="M121.311 197.326V208.054C121.311 208.206 121.371 208.352 121.479 208.459C121.586 208.567 121.732 208.627 121.884 208.627C122.036 208.627 122.182 208.567 122.29 208.459C122.397 208.352 122.457 208.206 122.457 208.054V197.326C122.408 196.631 121.311 196.631 121.311 197.326Z" fill="#161616"/>
<path d="M124.337 201.942V207.057C124.337 207.209 124.397 207.355 124.505 207.463C124.612 207.571 124.758 207.631 124.91 207.631C125.062 207.631 125.208 207.571 125.316 207.463C125.423 207.355 125.483 207.209 125.483 207.057V201.942C125.483 201.789 125.423 201.643 125.316 201.536C125.208 201.428 125.062 201.368 124.91 201.368C124.758 201.368 124.612 201.428 124.505 201.536C124.397 201.643 124.337 201.789 124.337 201.942Z" fill="#161616"/>
<path d="M111.637 164.348V156.402C111.637 156.25 111.577 156.104 111.469 155.996C111.362 155.889 111.216 155.828 111.064 155.828C110.912 155.828 110.766 155.889 110.659 155.996C110.551 156.104 110.491 156.25 110.491 156.402V164.348C110.54 165.044 111.637 165.093 111.637 164.348Z" fill="#161616"/>
<path d="M118.483 153.179V163.853C118.483 164.006 118.543 164.152 118.651 164.259C118.758 164.367 118.904 164.427 119.056 164.427C119.208 164.427 119.354 164.367 119.462 164.259C119.569 164.152 119.63 164.006 119.63 163.853V153.179C119.58 152.483 118.483 152.434 118.483 153.179Z" fill="#161616"/>
<path d="M123.642 131.92C124.965 132.694 126.04 133.829 126.743 135.192C127.445 136.554 127.746 138.089 127.61 139.617C127.561 140.312 128.653 140.312 128.757 139.617C128.906 137.896 128.56 136.168 127.761 134.637C126.961 133.106 125.74 131.836 124.243 130.976C124.181 130.937 124.112 130.911 124.04 130.898C123.968 130.886 123.894 130.888 123.822 130.904C123.751 130.92 123.683 130.95 123.624 130.992C123.564 131.035 123.513 131.088 123.474 131.15C123.435 131.212 123.408 131.281 123.396 131.353C123.383 131.426 123.385 131.5 123.402 131.571C123.418 131.642 123.448 131.71 123.49 131.77C123.532 131.83 123.586 131.881 123.648 131.92H123.642Z" fill="#161616"/>
<path d="M10.0291 168.818C9.37089 169.875 8.96576 171.071 8.84522 172.311C8.72469 173.552 8.89203 174.803 9.3342 175.968C9.58188 176.613 10.6735 176.365 10.4258 175.67C10.0297 174.644 9.8772 173.541 9.98048 172.446C10.0838 171.351 10.44 170.296 11.0209 169.363C11.0868 169.232 11.0993 169.08 11.0559 168.94C11.0124 168.8 10.9164 168.682 10.788 168.611C10.6595 168.541 10.5087 168.522 10.3672 168.561C10.2257 168.599 10.1045 168.691 10.0291 168.816V168.818Z" fill="#161616"/>
<path d="M4.42412 163.207C1.57562 166.763 0.0809993 171.215 0.206666 175.771C0.206666 175.923 0.267079 176.069 0.3746 176.177C0.482121 176.284 0.627942 176.345 0.78 176.345C0.932057 176.345 1.0779 176.284 1.18542 176.177C1.29294 176.069 1.35333 175.923 1.35333 175.771C1.23423 171.492 2.62152 167.308 5.27264 163.949C5.66939 163.452 4.8759 162.658 4.4287 163.204L4.42412 163.207Z" fill="#161616"/>
<path d="M123.145 179.053C124.121 179.554 124.938 180.316 125.507 181.254C126.077 182.192 126.375 183.269 126.37 184.366C126.37 184.519 126.43 184.665 126.538 184.772C126.645 184.88 126.791 184.94 126.943 184.94C127.095 184.94 127.241 184.88 127.349 184.772C127.456 184.665 127.517 184.519 127.517 184.366C127.525 183.077 127.177 181.81 126.512 180.706C125.846 179.602 124.889 178.703 123.746 178.109C123.102 177.764 122.506 178.704 123.151 179.052L123.145 179.053Z" fill="#161616"/>
<path opacity="0.15" d="M71.6979 135.892C77.5176 135.031 83.4577 136.15 88.5665 139.07C90.272 140.089 91.8394 141.324 93.23 142.743C93.0809 145.027 92.886 147.311 92.7335 149.597C85.4407 149.895 78.1972 150.192 70.9044 150.441C71.8962 150.491 79.8346 150.938 84.1507 157.394C85.5968 159.583 86.4358 162.118 86.5816 164.739C86.1091 168.125 84.7577 171.327 82.6623 174.026C80.2091 177.122 76.8944 179.42 73.1369 180.63C74.5347 181.366 75.7722 182.373 76.7772 183.592C77.7822 184.811 78.5347 186.218 78.9907 187.732C79.5318 189.732 79.5318 191.84 78.9907 193.84C74.1747 199.054 69.3621 204.285 64.553 209.533L130.83 210.278C132.291 209.508 133.484 208.313 134.253 206.852C134.971 205.365 135.258 203.708 135.083 202.066C134.907 200.425 134.276 198.866 133.261 197.565C129.788 193.145 121.9 194.685 121.007 194.884C122.261 193.948 123.272 192.724 123.954 191.316C124.636 189.907 124.97 188.354 124.926 186.789C124.697 184.419 123.559 182.229 121.751 180.681C118.228 180.433 114.756 180.184 111.233 179.936C112.142 178.959 112.83 177.797 113.25 176.529C113.669 175.261 113.81 173.918 113.664 172.59C113.432 171.019 112.793 169.536 111.809 168.289C110.825 167.043 109.531 166.077 108.058 165.489C112.77 165.44 116.839 165.34 120.063 165.241C129.439 164.993 131.573 164.844 133.26 163.06C135.542 160.578 136.286 155.76 134.004 152.781C133.006 151.554 131.626 150.698 130.085 150.347C126.416 150.198 122.746 150.003 119.071 149.85C120.016 149.883 120.958 149.728 121.844 149.396C122.729 149.064 123.54 148.56 124.231 147.914C124.915 147.114 125.423 146.179 125.722 145.169C126.021 144.16 126.105 143.099 125.967 142.055C125.874 139.754 124.918 137.572 123.289 135.946C120.858 133.811 117.732 134.407 112.026 134.704C107.561 134.952 103.047 134.506 98.5815 134.704C89.2602 135.098 79.8346 135.544 71.6979 135.892Z" fill="#3D3D3D"/>
<path d="M4.71993 34.7162C3.78425 40.4873 6.34589 45.9117 9.74576 50.4007C13.1949 54.9379 17.8756 58.6372 23.6411 59.4762C24.5768 59.6243 24.9712 58.1941 24.0355 58.046C19.059 57.3574 14.9207 54.3961 11.7662 50.5981C8.26772 46.3513 5.21299 40.8327 6.14752 35.1604C6.29544 34.1745 4.86669 33.7831 4.71877 34.7162H4.71993Z" fill="#161616"/>
<path d="M6.00075 34.7162C7.42175 33.63 9.07427 32.8872 10.8294 32.5457C11.765 32.3483 11.3717 30.9182 10.4349 31.1156C8.44277 31.5217 6.57105 32.3822 4.96531 33.6304C4.22571 34.272 5.26114 35.3073 5.9973 34.715L6.00075 34.7162Z" fill="#161616"/>
<path d="M11.0748 32.6445C15.4596 33.8279 19.4454 38.9573 21.9681 42.5086C24.5601 46.201 26.5552 50.2789 27.8803 54.5924C28.1761 55.4797 29.6003 55.1353 29.309 54.1976C27.8105 49.2472 25.4418 44.604 22.3144 40.4862C19.6541 36.9843 15.8598 32.3977 11.475 31.2144C11.2855 31.162 11.083 31.1871 10.912 31.2842C10.7411 31.3813 10.6157 31.5424 10.5634 31.732C10.511 31.9217 10.5361 32.1244 10.6331 32.2955C10.7301 32.4666 10.891 32.5922 11.0805 32.6445H11.0748Z" fill="#161616"/>
<path d="M23.9357 59.5737C25.8283 58.63 27.4917 57.2831 28.809 55.6277C29.4007 54.8873 28.3653 53.852 27.7771 54.5947C26.5624 56.1524 25.0132 57.4167 23.2443 58.294C22.3086 58.7382 23.0963 59.9709 23.9323 59.576L23.9357 59.5737Z" fill="#161616"/>
<path d="M8.31592 32.7444C8.168 38.4167 11.3213 44.0879 14.6719 48.477C17.8252 52.6194 22.2594 55.7769 27.6797 55.6782C27.8706 55.6707 28.0513 55.5895 28.1837 55.4516C28.3162 55.3137 28.3902 55.1298 28.3902 54.9385C28.3902 54.7472 28.3162 54.5633 28.1837 54.4254C28.0513 54.2875 27.8706 54.2063 27.6797 54.1987C22.2101 54.2975 17.9731 50.7462 15.017 46.4558C12.3075 42.4604 9.69536 37.7258 9.79397 32.7444C9.78645 32.5532 9.7053 32.3724 9.56753 32.2398C9.42976 32.1073 9.24606 32.0332 9.05495 32.0332C8.86383 32.0332 8.68013 32.1073 8.54236 32.2398C8.40459 32.3724 8.32344 32.5532 8.31592 32.7444Z" fill="#161616"/>
<path d="M6.73924 41.4733C7.4757 40.5956 8.38022 39.8744 9.3995 39.3522C10.2377 38.9573 9.49812 37.6752 8.65991 38.0701C7.5137 38.6119 6.50353 39.4042 5.7038 40.3886C5.11212 41.1289 6.14755 42.2136 6.73579 41.4733H6.73924Z" fill="#161616"/>
<path d="M5.95257 38.1194C6.84738 37.4331 7.8687 36.9303 8.95798 36.6399C9.14745 36.5875 9.30837 36.462 9.40536 36.2908C9.50234 36.1197 9.52744 35.917 9.47513 35.7274C9.42283 35.5377 9.2974 35.3767 9.12644 35.2796C8.95548 35.1825 8.753 35.1574 8.56354 35.2097C7.36313 35.5596 6.23036 36.1099 5.21298 36.8373C4.47338 37.3802 5.16366 38.6623 5.95257 38.1194Z" fill="#161616"/>
<path d="M11.1745 50.5969C12.2065 49.759 13.2935 48.92 14.3278 48.0821C15.0674 47.4899 14.0319 46.4546 13.2958 47.0491C12.2638 47.887 11.1767 48.726 10.1425 49.5639C9.35469 50.1562 10.4383 51.1915 11.1745 50.5969Z" fill="#161616"/>
<path d="M14.1317 53.852L16.6441 51.9283C16.7296 51.8772 16.8041 51.8095 16.8633 51.7293C16.9225 51.6491 16.9652 51.5579 16.9888 51.461C17.0125 51.3642 17.0168 51.2635 17.0013 51.165C16.9858 51.0665 16.9509 50.972 16.8987 50.8871C16.8464 50.8022 16.7778 50.7285 16.6969 50.6704C16.616 50.6122 16.5243 50.5707 16.4272 50.5483C16.3301 50.5259 16.2296 50.523 16.1314 50.5398C16.0332 50.5567 15.9393 50.5928 15.8551 50.6463L13.3428 52.57C13.2573 52.6211 13.1828 52.6888 13.1236 52.769C13.0644 52.8492 13.0217 52.9404 12.998 53.0373C12.9743 53.1341 12.9701 53.2348 12.9856 53.3333C13.0011 53.4318 13.0359 53.5263 13.0882 53.6112C13.1404 53.6961 13.209 53.7698 13.2899 53.8279C13.3709 53.8861 13.4626 53.9276 13.5596 53.95C13.6567 53.9724 13.7573 53.9753 13.8555 53.9585C13.9537 53.9416 14.0476 53.9055 14.1317 53.852Z" fill="#161616"/>
<path d="M19.3525 57.5514C20.1896 56.7135 21.0725 55.9238 21.9142 55.0859C22.6022 54.4443 21.5702 53.3643 20.8822 54.0529C20.044 54.8908 19.1622 55.6805 18.3205 56.5195C17.6325 57.1611 18.6645 58.2412 19.3525 57.5525V57.5514Z" fill="#161616"/>
<path d="M11.3224 35.8009C12.2581 36.6388 13.1456 37.5226 14.0813 38.3651C14.0242 38.0725 13.9912 37.7758 13.9827 37.4778C12.9977 39.056 12.4553 41.0784 13.7855 42.6566C14.2651 43.234 14.9245 43.6333 15.658 43.7906C15.9859 43.8153 16.3151 43.8153 16.643 43.7906C16.8895 43.7413 17.0867 43.6426 17.331 43.5932C20.0405 43.149 20.5336 44.1855 18.7597 46.6509C17.8733 46.9952 18.2666 48.4265 19.1542 48.081C19.6147 47.9502 20.0407 47.7193 20.4018 47.4047C20.7629 47.0901 21.0502 46.6996 21.2432 46.2611C21.4361 45.8226 21.53 45.3469 21.5182 44.8679C21.5063 44.3888 21.389 43.9183 21.1746 43.4899C20.9141 43.0435 20.5495 42.6668 20.112 42.392C19.6745 42.1172 19.1771 41.9524 18.6622 41.9117C18.3175 41.9037 17.9727 41.9202 17.6303 41.9611C16.448 42.6027 15.4126 42.1091 14.5262 40.5837C14.5549 39.7802 14.8304 39.005 15.3151 38.3639C15.385 38.222 15.4129 38.0631 15.3954 37.9059C15.3779 37.7486 15.3158 37.5997 15.2165 37.4767C14.2808 36.6388 13.3933 35.755 12.4576 34.9125C11.6687 34.1229 10.6344 35.1593 11.3247 35.7998L11.3224 35.8009Z" fill="#161616"/>
<path d="M19.9454 47.6862C20.7836 48.6721 21.5713 49.6099 22.4084 50.5958C23.0001 51.3362 24.0837 50.2515 23.4404 49.5628C22.6033 48.5769 21.8144 47.6391 20.9762 46.6532C20.3845 45.9129 19.3502 46.9975 19.9442 47.6862H19.9454Z" fill="#161616"/>
<path d="M52.8593 24.703C48.5237 21.2998 45.8646 11.6332 49.5087 7.04661C53.795 1.76681 62.3193 -0.49892 67.0986 5.12292C71.0901 9.80817 71.3413 17.1574 68.3301 22.4349C67.5603 23.9266 66.3826 25.1684 64.9344 26.0155C63.4862 26.8625 61.8272 27.2799 60.151 27.2189C58.5684 27.2554 56.996 26.9581 55.5358 26.3462C54.0756 25.7344 52.7605 24.8218 51.6759 23.6677C51.0349 22.979 50.0007 24.012 50.6439 24.7007C54.241 28.548 60.6956 29.9805 65.4749 27.5116C70.4515 24.8981 72.324 17.7956 71.7323 12.6168C71.1406 7.38865 67.938 1.76681 62.5188 0.384875C57.2957 -0.946553 49.5615 2.80211 47.2441 7.68478C45.8153 10.6931 46.3577 14.2937 47.0961 17.4501C47.6413 20.6354 49.2791 23.5307 51.7275 25.6373C52.5153 26.3259 53.6 25.2929 52.8604 24.7007L52.8593 24.703Z" fill="#161616"/>
<path d="M56.9977 6.16167C56.9977 6.11231 56.9484 6.01361 56.9484 5.96425C56.8498 6.26038 56.7018 6.50715 56.6044 6.80213C56.1606 6.65407 56.1113 6.70342 56.4071 7.09826C56.6861 7.58404 56.9165 8.09612 57.0951 8.62711C57.2431 8.33098 57.4391 8.03485 57.5882 7.73987C55.6664 8.33213 53.2527 9.66356 53.9418 12.0796C54.0258 12.4485 54.2004 12.7906 54.4499 13.0748C54.6994 13.359 55.0159 13.5764 55.3705 13.7072C55.9622 13.954 56.3062 13.7072 56.8979 13.6578C57.3426 13.4377 57.8462 13.3669 58.3343 13.4558C58.8223 13.5447 59.2688 13.7886 59.6075 14.1514C60.3471 16.3218 59.7554 17.4065 57.7843 17.5546C57.6538 17.5592 57.5267 17.5973 57.4151 17.6651C57.3035 17.733 57.2111 17.8283 57.1469 17.9421C57.0826 18.0558 57.0485 18.1842 57.0479 18.3149C57.0472 18.4456 57.0801 18.5742 57.1433 18.6886C57.5753 19.5115 57.9378 20.3692 58.2269 21.2527C58.5227 22.14 59.9469 21.7956 59.6556 20.8579C59.3689 19.8401 58.9551 18.8625 58.4241 17.9483C58.2269 18.3431 57.9804 18.6886 57.7831 19.0823C60.1487 19.0329 62.4145 16.8131 61.4295 14.3477C61.204 13.7814 60.8438 13.2787 60.3802 12.8833C59.9166 12.4878 59.3636 12.2116 58.7693 12.0785C58.1251 12.0522 57.48 12.1019 56.8475 12.2266C55.6159 12.2266 55.2708 11.9798 55.9118 10.7964C56.0905 10.3774 56.3746 10.0119 56.7362 9.73536C57.0979 9.45881 57.5249 9.28065 57.9758 9.21822C58.1573 9.16379 58.3103 9.0406 58.4024 8.87489C58.4945 8.70917 58.5183 8.51402 58.4688 8.33098C58.1248 7.34504 57.7808 5.9631 56.7936 5.47071C56.6798 5.40972 56.5528 5.37781 56.4238 5.37781C56.2947 5.37781 56.1677 5.40972 56.054 5.47071C56.0047 5.52006 55.906 5.56941 55.8567 5.61877C55.7219 5.7076 55.6169 5.83508 55.5555 5.98456C55.4942 6.13403 55.4792 6.29856 55.5127 6.45665C55.5127 6.506 55.562 6.60471 55.562 6.65407C55.7593 7.44374 57.188 7.0489 56.9908 6.16052L56.9977 6.16167Z" fill="#161616"/>
<path d="M61.6289 1.96654C69.1178 0.0428582 73.0108 8.13129 73.1587 14.2972C73.208 17.1081 72.9615 20.2657 71.2862 22.6324C69.463 25.1965 66.211 25.9862 63.5015 27.1696C62.6151 27.5644 63.4028 28.8465 64.2411 28.4516C67.493 27.0215 71.0408 26.0838 72.9626 22.7793C74.7858 19.6229 74.9337 15.4335 74.49 11.8754C73.7022 5.36513 68.5273 -1.34252 61.2849 0.531814C61.0997 0.581359 60.9411 0.701433 60.843 0.86641C60.7449 1.03139 60.7152 1.2282 60.76 1.41484C60.8049 1.60148 60.9209 1.76316 61.0833 1.86538C61.2456 1.9676 61.4414 2.00225 61.6289 1.96195V1.96654Z" fill="#161616"/>
<path d="M69.8586 21.9414L71.9226 21.4973C72.8583 21.2998 72.465 19.8697 71.5281 20.0671L69.4641 20.5113C68.5284 20.7087 68.9218 22.1389 69.8586 21.9414Z" fill="#161616"/>
<path d="M71.6314 16.2702C72.4203 16.0235 73.2081 15.7767 73.9477 15.4806C74.8341 15.1844 74.4408 13.7589 73.5532 14.0504C72.7655 14.2972 71.9766 14.544 71.237 14.8401C70.3506 15.1362 70.7439 16.5618 71.6314 16.2702Z" fill="#161616"/>
<path d="M71.1394 11.8811C71.6325 11.7823 72.1714 11.6836 72.6668 11.5849C72.7636 11.565 72.8553 11.5253 72.9361 11.4682C73.0169 11.4111 73.0851 11.338 73.1363 11.2533C73.1875 11.1686 73.2207 11.0743 73.2338 10.9761C73.2469 10.878 73.2396 10.7783 73.2123 10.6831C73.1851 10.588 73.1385 10.4995 73.0754 10.4232C73.0124 10.3469 72.9343 10.2845 72.8461 10.2398C72.7578 10.1952 72.6613 10.1693 72.5626 10.1637C72.4638 10.1582 72.365 10.1731 72.2723 10.2076C71.7792 10.3063 71.2403 10.405 70.7449 10.5037C70.6535 10.5281 70.5679 10.5707 70.4932 10.6289C70.4186 10.6872 70.3564 10.7598 70.3104 10.8426C70.2644 10.9254 70.2355 11.0166 70.2254 11.1108C70.2154 11.205 70.2244 11.3003 70.2519 11.3909C70.3101 11.57 70.4339 11.7204 70.5983 11.8119C70.7627 11.9035 70.9556 11.9294 71.1383 11.8845L71.1394 11.8811Z" fill="#161616"/>
<path d="M68.1845 5.66579C69.0902 5.82349 70.0207 5.75569 70.8941 5.46837C71.7804 5.17224 71.3871 3.74669 70.4996 4.03823C69.8824 4.24965 69.2251 4.31717 68.5778 4.23565C68.3951 4.19076 68.2022 4.21669 68.0378 4.30823C67.8734 4.39977 67.7497 4.55014 67.6914 4.72919C67.6583 4.82294 67.645 4.92253 67.6522 5.0217C67.6594 5.12087 67.687 5.21747 67.7333 5.30544C67.7796 5.39341 67.8436 5.47083 67.9213 5.53284C67.9989 5.59486 68.0885 5.64012 68.1845 5.66579Z" fill="#161616"/>
<path d="M60.0042 98.9794C53.5496 97.1051 49.3608 90.7923 49.2634 84.1834C49.1154 76.6378 55.6686 70.1804 63.1587 73.5296C69.4653 76.3406 71.8802 83.7392 72.0774 90.2C72.1761 93.3071 71.6337 97.0557 68.8255 98.8807C65.9187 100.804 62.1244 100.064 59.0203 99.0781C58.134 98.782 57.7395 100.212 58.6259 100.508C63.6517 102.136 70.0077 102.23 72.5212 96.6116C74.9361 91.2353 73.4076 83.5418 70.6487 78.6097C67.8898 73.6283 61.9764 69.781 56.1135 71.5072C50.0041 73.3322 47.2441 79.9905 47.9344 85.9085C48.2479 89.2176 49.5267 92.3613 51.6116 94.9485C53.6966 97.5356 56.4955 99.4519 59.6602 100.459C60.5466 100.706 60.941 99.2756 60.0042 98.9794Z" fill="#161616"/>
<path d="M56.7568 77.1314C57.9542 78.398 58.8895 79.8893 59.5088 81.5193L60.3951 80.6321C58.0296 80.1385 56.798 82.1609 56.946 84.3314C56.9175 84.7203 56.9884 85.1101 57.1522 85.4639C57.3159 85.8177 57.5669 86.124 57.8816 86.3538C58.4893 86.5338 59.1309 86.5676 59.7541 86.4525C60.325 86.3871 60.9005 86.3705 61.4741 86.4031C64.0851 86.6006 64.4303 87.7346 62.5578 89.8063C62.4273 89.811 62.3001 89.8491 62.1886 89.9169C62.077 89.9847 61.9846 90.0801 61.9203 90.1938C61.856 90.3076 61.8219 90.4359 61.8213 90.5666C61.8207 90.6973 61.8536 90.826 61.9168 90.9403C62.8167 92.3148 63.6235 93.7481 64.3316 95.2308C64.7261 96.0686 66.0069 95.3295 65.6125 94.4904C64.8853 93.0178 64.0791 91.5856 63.1976 90.2C63.0004 90.5948 62.7538 90.9403 62.5566 91.334C64.6206 91.0872 66.3509 89.1636 65.2662 87.0436C64.7453 86.15 63.8966 85.4952 62.9006 85.2186C62.1799 85.0151 61.4307 84.9317 60.6829 84.9719C60.0913 85.0212 59.55 85.0706 58.9629 85.1199C58.0273 83.9859 58.3713 82.9988 60.0466 82.1609C60.5396 82.2597 61.1795 81.8166 60.9329 81.2737C60.2436 79.3962 59.173 77.6821 57.7888 76.2395C57.1478 75.4016 56.1135 76.4369 56.7568 77.1268V77.1314Z" fill="#161616"/>
<path d="M51.6301 73.8269C45.2741 79.3019 43.303 88.7217 48.0823 95.8736C50.2965 99.2256 53.74 101.57 57.6679 102.401C61.5958 103.232 65.6925 102.481 69.072 100.312C69.8609 99.8185 69.1213 98.5364 68.3324 99.03C66.7738 100.04 65.0276 100.725 63.1982 101.044C61.3689 101.363 59.4942 101.309 57.6862 100.885C55.8782 100.461 54.1743 99.6769 52.6763 98.5785C51.1784 97.4802 49.9174 96.0905 48.9687 94.4928C45.0264 87.8838 47.0468 79.7461 52.7137 74.8657C53.4017 74.2734 52.3697 73.2381 51.6301 73.8327V73.8269Z" fill="#161616"/>
<path opacity="0.14" d="M55.5689 73.1853C54.2234 76.1898 53.5829 79.4627 53.6964 82.7532C53.7457 84.0353 54.0908 91.1871 59.2646 96.0205C62.8124 99.3249 66.5574 99.5223 66.4095 100.656C66.2122 101.889 61.5809 102.876 57.3921 101.84C55.0142 101.196 52.825 99.9908 51.0076 98.3262C49.1902 96.6616 47.7975 94.5856 46.9459 92.2718C45.5069 88.5424 45.5955 84.3953 47.1925 80.7308C48.8766 77.2049 51.889 74.4914 55.5689 73.1853Z" fill="#07A4A2"/>
<path opacity="0.15" d="M9.10482 32.5951C9.40416 35.3662 10.0669 38.0857 11.076 40.6835C12.3568 43.8399 14.5744 49.5123 20.3387 52.7674C22.8203 54.1402 25.5865 54.917 28.4193 55.0366C27.7785 56.2769 26.8281 57.3302 25.6604 58.0942C24.8429 58.6069 23.9428 58.9738 23.0001 59.1789C20.0415 58.3005 17.2574 56.9153 14.7717 55.0848C10.6829 52.2301 7.624 48.1305 6.05012 43.3957C5.11119 40.2969 4.89194 37.0244 5.40913 33.8278C6.59363 33.3836 7.824 32.9888 9.10482 32.5951Z" fill="#07A4A2"/>
<path opacity="0.14" d="M62.4672 0.882994C64.889 2.15815 66.9037 4.08961 68.2808 6.45663C70.0453 9.69172 70.6521 13.4333 70.0008 17.061C69.8212 19.6971 68.8988 22.2282 67.3405 24.3609C66.4612 25.52 65.3754 26.5064 64.1379 27.2705C66.404 27.1666 68.5637 26.2777 70.2473 24.7557C71.7549 23.1745 72.7656 21.185 73.1541 19.034C73.786 16.7574 73.9702 14.3795 73.6965 12.0326C73.4447 10.1372 72.8626 8.30083 71.9765 6.60699C71.0485 4.36726 69.3543 2.53138 67.1972 1.42819C65.7032 0.804499 64.0637 0.615526 62.4672 0.882994Z" fill="#07A4A2"/>
</svg>
